# xmcd CD database file
#
# Track frame offsets:
#	150
#	93318
#	140018
#	173368
#	258343
#	306605
#
# Disc length: 4624 seconds
#
# Revision: 0
# Processed by: cddbd v1.5.2PL0 Copyright (c) Steve Scherf et al.
# Submitted via: CDex 1.70beta2
#
DISCID=4c120e06
DTITLE=高橋悠治＋佐藤允彦 - Distant Voices
DYEAR=1974
DGENRE=Jazz
TTITLE0=Distant Voices
TTITLE1=Flying Off
TTITLE2=Midsummer Blues
TTITLE3=Samarkand
TTITLE4=Taklamakan
TTITLE5=Lob Nor
EXTD=YEAR: 1974
EXTT0=
EXTT1=
EXTT2=
EXTT3=
EXTT4=
EXTT5=
PLAYORDER=
